<mxfile host="app.diagrams.net" modified="2022-11-22T10:43:14.009Z" agent="5.0 (Windows)" etag="3EqQ1R10yjiM_zVZZ5xt" version="20.5.3" type="github">
  <diagram id="X8Z78FuqrprQ2FSuTEVu" name="Page-1">
    <mxGraphModel dx="1550" dy="852" grid="1" gridSize="10" guides="1" tooltips="1" connect="1" arrows="1" fold="1" page="1" pageScale="1" pageWidth="850" pageHeight="1100" math="0" shadow="0">
      <root>
        <mxCell id="0" />
        <mxCell id="1" parent="0" />
        <mxCell id="zqa_NRZzv7nKZkw0Pogq-2" value="EMR job" style="swimlane;whiteSpace=wrap;html=1;startSize=70;" vertex="1" parent="1">
          <mxGeometry x="140" y="10" width="210" height="450" as="geometry" />
        </mxCell>
        <mxCell id="zqa_NRZzv7nKZkw0Pogq-1" value="" style="outlineConnect=0;dashed=0;verticalLabelPosition=bottom;verticalAlign=top;align=center;html=1;shape=mxgraph.aws3.emr;fillColor=#F58534;gradientColor=none;" vertex="1" parent="zqa_NRZzv7nKZkw0Pogq-2">
          <mxGeometry x="20" y="10" width="50" height="50" as="geometry" />
        </mxCell>
      </root>
    </mxGraphModel>
  </diagram>
</mxfile>
